<svg width="32" height="32" viewBox="0 0 32 32" fill="none" xmlns="http://www.w3.org/2000/svg">
  <!-- Hedgehog body -->
  <ellipse cx="16" cy="20" rx="10" ry="8" fill="#8B4513"/>

  <!-- Hedgehog face/nose area -->
  <ellipse cx="14" cy="19" rx="5" ry="4" fill="#D2691E"/>

  <!-- Quill spikes -->
  <line x1="12" y1="14" x2="10" y2="8" stroke="#4A4A4A" stroke-width="1.5" stroke-linecap="round"/>
  <line x1="14" y1="13" x2="13" y2="7" stroke="#4A4A4A" stroke-width="1.5" stroke-linecap="round"/>
  <line x1="16" y1="12" x2="16" y2="6" stroke="#4A4A4A" stroke-width="1.5" stroke-linecap="round"/>
  <line x1="18" y1="13" x2="19" y2="7" stroke="#4A4A4A" stroke-width="1.5" stroke-linecap="round"/>
  <line x1="20" y1="14" x2="22" y2="8" stroke="#4A4A4A" stroke-width="1.5" stroke-linecap="round"/>
  <line x1="22" y1="16" x2="25" y2="11" stroke="#4A4A4A" stroke-width="1.5" stroke-linecap="round"/>
  <line x1="23" y1="18" x2="26" y2="14" stroke="#4A4A4A" stroke-width="1.5" stroke-linecap="round"/>
  <line x1="10" y1="16" x2="7" y2="11" stroke="#4A4A4A" stroke-width="1.5" stroke-linecap="round"/>
  <line x1="9" y1="18" x2="6" y2="14" stroke="#4A4A4A" stroke-width="1.5" stroke-linecap="round"/>

  <!-- Eye -->
  <circle cx="12" cy="19" r="1.5" fill="#2C1810"/>

  <!-- Nose -->
  <circle cx="10" cy="20" r="1" fill="#2C1810"/>

  <!-- Coffee cup steam (representing "cup" in Quill & Cup) -->
  <path d="M 24 26 Q 25 24 24 22" stroke="#8B7355" stroke-width="1" fill="none" stroke-linecap="round"/>
  <path d="M 26 26 Q 27 24 26 22" stroke="#8B7355" stroke-width="1" fill="none" stroke-linecap="round"/>

  <!-- Coffee cup -->
  <rect x="23" y="26" width="5" height="4" rx="0.5" fill="#6F4E37"/>
  <rect x="22.5" y="30" width="6" height="0.5" fill="#6F4E37"/>
</svg>
